<?xml version="1.0" encoding="UTF-8" standalone="no"?>
<svg
   xmlns:dc="http://purl.org/dc/elements/1.1/"
   xmlns:cc="http://creativecommons.org/ns#"
   xmlns:rdf="http://www.w3.org/1999/02/22-rdf-syntax-ns#"
   xmlns:svg="http://www.w3.org/2000/svg"
   xmlns="http://www.w3.org/2000/svg"
   xmlns:sodipodi="http://sodipodi.sourceforge.net/DTD/sodipodi-0.dtd"
   xmlns:inkscape="http://www.inkscape.org/namespaces/inkscape"
   viewBox="0 0 490.25354 78.599998"
   version="1.1"
   id="svg10"
   sodipodi:docname="logo.svg"
   inkscape:version="0.92.2 2405546, 2018-03-11"
   width="490.25354"
   height="78.599998">
  <metadata
     id="metadata16">
    <rdf:RDF>
      <cc:Work
         rdf:about="">
        <dc:format>image/svg+xml</dc:format>
        <dc:type
           rdf:resource="http://purl.org/dc/dcmitype/StillImage" />
        <dc:title></dc:title>
      </cc:Work>
    </rdf:RDF>
  </metadata>
  <defs
     id="defs14" />
  <sodipodi:namedview
     pagecolor="#ffffff"
     bordercolor="#666666"
     borderopacity="1"
     objecttolerance="10"
     gridtolerance="10"
     guidetolerance="10"
     inkscape:pageopacity="0"
     inkscape:pageshadow="2"
     inkscape:window-width="1920"
     inkscape:window-height="1016"
     id="namedview12"
     showgrid="false"
     inkscape:zoom="1.4902275"
     inkscape:cx="142.11859"
     inkscape:cy="34.071143"
     inkscape:window-x="0"
     inkscape:window-y="27"
     inkscape:window-maximized="1"
     inkscape:current-layer="svg10"
     fit-margin-top="2"
     fit-margin-left="2"
     fit-margin-right="2"
     fit-margin-bottom="2" />
  <path
     style="fill:#00039b;fill-opacity:1"
     inkscape:connector-curvature="0"
     id="path2"
     d="m 56.449624,54.1 c 2.9,-0.3 5.1,-2.8 5,-5.8 -0.1,-3 -2.6,-5.4 -5.6,-5.4 h -0.2 c -3.1,0.1 -5.5,2.7 -5.4,5.8 0.1,1.5 0.7,2.8 1.6,3.7 -3.4,6.7 -8.6,11.6 -16.4,15.7 -5.3,2.8 -10.8,3.8 -16.3,3.1 -4.5,-0.6 -8,-2.6 -10.2000004,-5.9 -3.2,-4.9 -3.5,-10.2 -0.8,-15.5 1.9000004,-3.8 4.9000004,-6.6 6.8000004,-8 -0.4,-1.3 -1,-3.5 -1.3,-5.1 -14.50000043,10.5 -13.00000043,24.7 -8.6000004,31.4 3.3,5 10.0000004,8.1 17.4000004,8.1 2,0 4,-0.2 6,-0.7 12.8,-2.5 22.5,-10.1 28,-21.4 z" />
  <path
     style="fill:#53d05c;fill-opacity:1"
     inkscape:connector-curvature="0"
     id="path4"
     d="m 74.049624,41.7 c -7.6,-8.9 -18.8,-13.8 -31.6,-13.8 h -1.6 c -0.9,-1.8 -2.8,-3 -4.9,-3 h -0.2 c -3.1,0.1 -5.5,2.7 -5.4,5.8 0.1,3 2.6,5.4 5.6,5.4 h 0.2 c 2.2,-0.1 4.1,-1.5 4.9,-3.4 h 1.8 c 7.6,0 14.8,2.2 21.3,6.5 5,3.3 8.6,7.6 10.6,12.8 1.7,4.2 1.6,8.3 -0.2,11.8 -2.8,5.3 -7.5,8.2 -13.7,8.2 -4,0 -7.8,-1.2 -9.8,-2.1 -1.1,1 -3.1,2.6 -4.5,3.6 4.3,2 8.7,3.1 12.9,3.1 9.6,0 16.7,-5.3 19.4,-10.6 2.9,-5.8 2.7,-15.8 -4.8,-24.3 z" />
  <path
     style="fill:#e60f00;fill-opacity:1"
     inkscape:connector-curvature="0"
     id="path6"
     d="m 23.249624,55.8 c 0.1,3 2.6,5.4 5.6,5.4 h 0.2 c 3.1,-0.1 5.5,-2.7 5.4,-5.8 -0.1,-3 -2.6,-5.4 -5.6,-5.4 h -0.2 c -0.2,0 -0.5,0 -0.7,0.1 -4.1,-6.8 -5.8,-14.2 -5.2,-22.2 0.4,-6 2.4,-11.2 5.9,-15.5 2.9,-3.7 8.5,-5.5 12.3,-5.6 10.6,-0.2 15.1,13 15.4,18.3 1.3,0.3 3.5,1 5,1.5 -1.2,-16.2 -11.2,-24.6 -20.8,-24.6 -9,0 -17.3,6.5 -20.6,16.1 -4.6,12.8 -1.6,25.1 4,34.8 -0.5,0.7 -0.8,1.8 -0.7,2.9 z" />
  <g
     aria-label="expect-redux"
     transform="matrix(1.5659893,0,0,1.5659893,-37.007757,-13.247769)"
     style="font-style:normal;font-weight:normal;font-size:40px;line-height:1;font-family:sans-serif;letter-spacing:0px;word-spacing:0px;fill:#303030;fill-opacity:1;stroke:none"
     id="flowRoot17557">
    <path
       d="m 114.30258,35.701094 q 0,-0.96 -0.28,-1.8 -0.26,-0.86 -0.8,-1.5 -0.54,-0.64 -1.38,-1 -0.82,-0.38 -1.92,-0.38 -2.14,0 -3.38,1.22 -1.22,1.22 -1.56,3.46 z m -9.42,2.98 q 0.12,1.58 0.56,2.74 0.44,1.14 1.16,1.9 0.72,0.74 1.7,1.12 1,0.36 2.2,0.36 1.2,0 2.06,-0.28 0.88,-0.28 1.52,-0.62 0.66,-0.34 1.14,-0.62 0.5,-0.28 0.96,-0.28 0.62,0 0.92,0.46 l 1.42,1.8 q -0.82,0.96 -1.84,1.62 -1.02,0.64 -2.14,1.04 -1.1,0.38 -2.26,0.54 -1.14,0.16 -2.22,0.16 -2.14,0 -3.98,-0.7 -1.84,-0.72 -3.2,-2.1 -1.36,-1.4 -2.14,-3.44 -0.780002,-2.06 -0.780002,-4.76 0,-2.1 0.680002,-3.94 0.68,-1.86 1.94,-3.22 1.28,-1.38 3.1,-2.18 1.84,-0.8 4.14,-0.8 1.94,0 3.58,0.62 1.64,0.62 2.82,1.82 1.18,1.18 1.84,2.92 0.68,1.72 0.68,3.94 0,1.12 -0.24,1.52 -0.24,0.38 -0.92,0.38 z"
       style="font-style:normal;font-variant:normal;font-weight:bold;font-stretch:normal;font-family:Lato;-inkscape-font-specification:'Lato Bold';fill:#303030;fill-opacity:1"
       id="path17571"
       inkscape:connector-curvature="0" />
    <path
       d="m 140.4182,48.321094 h -4.76 q -0.54,0 -0.88,-0.28 -0.32,-0.28 -0.54,-0.64 l -4.34,-7.14 q -0.1,0.34 -0.24,0.64 -0.12,0.3 -0.28,0.56 l -3.84,5.94 q -0.22,0.34 -0.54,0.64 -0.32,0.28 -0.8,0.28 h -4.42 l 7.04,-10.58 -6.76,-9.94 h 4.76 q 0.54,0 0.8,0.16 0.26,0.14 0.46,0.48 l 4.3,6.84 q 0.22,-0.68 0.62,-1.34 l 3.46,-5.4 q 0.44,-0.74 1.14,-0.74 h 4.54 l -6.74,9.72 z"
       style="font-style:normal;font-variant:normal;font-weight:bold;font-stretch:normal;font-family:Lato;-inkscape-font-specification:'Lato Bold';fill:#303030;fill-opacity:1"
       id="path17573"
       inkscape:connector-curvature="0" />
    <path
       d="m 147.89758,43.001094 q 0.84,1.02 1.82,1.44 1,0.42 2.16,0.42 1.12,0 2.02,-0.42 0.9,-0.42 1.52,-1.28 0.64,-0.86 0.98,-2.16 0.34,-1.32 0.34,-3.1 0,-1.8 -0.3,-3.04 -0.28,-1.26 -0.82,-2.04 -0.54,-0.78 -1.32,-1.14 -0.76,-0.36 -1.74,-0.36 -1.54,0 -2.62,0.66 -1.08,0.64 -2.04,1.82 z m -0.26,-12.4 q 1.26,-1.42 2.86,-2.3 1.6,-0.88 3.76,-0.88 1.68,0 3.06,0.7 1.4,0.7 2.4,2.04 1.02,1.32 1.56,3.28 0.56,1.94 0.56,4.46 0,2.3 -0.62,4.26 -0.62,1.96 -1.78,3.4 -1.14,1.44 -2.78,2.26 -1.62,0.8 -3.64,0.8 -1.72,0 -2.94,-0.52 -1.22,-0.54 -2.18,-1.48 v 8.4 h -4.94 v -27.22 h 3.02 q 0.96,0 1.26,0.9 z"
       style="font-style:normal;font-variant:normal;font-weight:bold;font-stretch:normal;font-family:Lato;-inkscape-font-specification:'Lato Bold';fill:#303030;fill-opacity:1"
       id="path17575"
       inkscape:connector-curvature="0" />
    <path
       d="m 178.91195,35.701094 q 0,-0.96 -0.28,-1.8 -0.26,-0.86 -0.8,-1.5 -0.54,-0.64 -1.38,-1 -0.82,-0.38 -1.92,-0.38 -2.14,0 -3.38,1.22 -1.22,1.22 -1.56,3.46 z m -9.42,2.98 q 0.12,1.58 0.56,2.74 0.44,1.14 1.16,1.9 0.72,0.74 1.7,1.12 1,0.36 2.2,0.36 1.2,0 2.06,-0.28 0.88,-0.28 1.52,-0.62 0.66,-0.34 1.14,-0.62 0.5,-0.28 0.96,-0.28 0.62,0 0.92,0.46 l 1.42,1.8 q -0.82,0.96 -1.84,1.62 -1.02,0.64 -2.14,1.04 -1.1,0.38 -2.26,0.54 -1.14,0.16 -2.22,0.16 -2.14,0 -3.98,-0.7 -1.84,-0.72 -3.2,-2.1 -1.36,-1.4 -2.14,-3.44 -0.78,-2.06 -0.78,-4.76 0,-2.1 0.68,-3.94 0.68,-1.86 1.94,-3.22 1.28,-1.38 3.1,-2.18 1.84,-0.8 4.14,-0.8 1.94,0 3.58,0.62 1.64,0.62 2.82,1.82 1.18,1.18 1.84,2.92 0.68,1.72 0.68,3.94 0,1.12 -0.24,1.52 -0.24,0.38 -0.92,0.38 z"
       style="font-style:normal;font-variant:normal;font-weight:bold;font-stretch:normal;font-family:Lato;-inkscape-font-specification:'Lato Bold';fill:#303030;fill-opacity:1"
       id="path17577"
       inkscape:connector-curvature="0" />
    <path
       d="m 201.72008,32.141094 q -0.22,0.28 -0.44,0.44 -0.2,0.16 -0.6,0.16 -0.38,0 -0.74,-0.22 -0.36,-0.24 -0.86,-0.52 -0.5,-0.3 -1.2,-0.52 -0.68,-0.24 -1.7,-0.24 -1.3,0 -2.28,0.48 -0.98,0.46 -1.64,1.34 -0.64,0.88 -0.96,2.14 -0.32,1.24 -0.32,2.82 0,1.64 0.34,2.92 0.36,1.28 1.02,2.16 0.66,0.86 1.6,1.32 0.94,0.44 2.12,0.44 1.18,0 1.9,-0.28 0.74,-0.3 1.24,-0.64 0.5,-0.36 0.86,-0.64 0.38,-0.3 0.84,-0.3 0.6,0 0.9,0.46 l 1.42,1.8 q -0.82,0.96 -1.78,1.62 -0.96,0.64 -2,1.04 -1.02,0.38 -2.12,0.54 -1.08,0.16 -2.16,0.16 -1.9,0 -3.58,-0.7 -1.68,-0.72 -2.94,-2.08 -1.26,-1.36 -2,-3.32 -0.72,-1.98 -0.72,-4.5 0,-2.26 0.64,-4.18 0.66,-1.94 1.92,-3.34 1.26,-1.42 3.12,-2.22 1.86,-0.8 4.28,-0.8 2.3,0 4.02,0.74 1.74,0.74 3.12,2.12 z"
       style="font-style:normal;font-variant:normal;font-weight:bold;font-stretch:normal;font-family:Lato;-inkscape-font-specification:'Lato Bold';fill:#303030;fill-opacity:1"
       id="path17579"
       inkscape:connector-curvature="0" />
    <path
       d="m 213.15695,48.641094 q -2.68,0 -4.12,-1.5 -1.42,-1.52 -1.42,-4.18 v -11.46 h -2.1 q -0.4,0 -0.68,-0.26 -0.28,-0.26 -0.28,-0.78 v -1.96 l 3.3,-0.54 1.04,-5.6 q 0.1,-0.4 0.38,-0.62 0.28,-0.22 0.72,-0.22 h 2.56 v 6.46 h 5.48 v 3.52 h -5.48 v 11.12 q 0,0.96 0.46,1.5 0.48,0.54 1.3,0.54 0.46,0 0.76,-0.1 0.32,-0.12 0.54,-0.24 0.24,-0.12 0.42,-0.22 0.18,-0.12 0.36,-0.12 0.22,0 0.36,0.12 0.14,0.1 0.3,0.32 l 1.48,2.4 q -1.08,0.9 -2.48,1.36 -1.4,0.46 -2.9,0.46 z"
       style="font-style:normal;font-variant:normal;font-weight:bold;font-stretch:normal;font-family:Lato;-inkscape-font-specification:'Lato Bold';fill:#303030;fill-opacity:1"
       id="path17581"
       inkscape:connector-curvature="0" />
    <path
       d="m 221.0007,34.181094 h 10.36 v 4.12 h -10.36 z"
       style="font-style:normal;font-variant:normal;font-weight:bold;font-stretch:normal;font-family:Lato;-inkscape-font-specification:'Lato Bold';fill:#303030;fill-opacity:1"
       id="path17583"
       inkscape:connector-curvature="0" />
    <path
       d="m 240.74258,31.361094 q 0.96,-1.84 2.28,-2.88 1.32,-1.06 3.12,-1.06 1.42,0 2.28,0.62 l -0.32,3.7 q -0.1,0.36 -0.3,0.52 -0.18,0.14 -0.5,0.14 -0.3,0 -0.9,-0.1 -0.58,-0.1 -1.14,-0.1 -0.82,0 -1.46,0.24 -0.64,0.24 -1.16,0.7 -0.5,0.44 -0.9,1.08 -0.38,0.64 -0.72,1.46 v 12.64 h -4.94 v -20.52 h 2.9 q 0.76,0 1.06,0.28 0.3,0.26 0.4,0.96 z"
       style="font-style:normal;font-variant:normal;font-weight:bold;font-stretch:normal;font-family:Lato;-inkscape-font-specification:'Lato Bold';fill:#303030;fill-opacity:1"
       id="path17585"
       inkscape:connector-curvature="0" />
    <path
       d="m 263.67758,35.701094 q 0,-0.96 -0.28,-1.8 -0.26,-0.86 -0.8,-1.5 -0.54,-0.64 -1.38,-1 -0.82,-0.38 -1.92,-0.38 -2.14,0 -3.38,1.22 -1.22,1.22 -1.56,3.46 z m -9.42,2.98 q 0.12,1.58 0.56,2.74 0.44,1.14 1.16,1.9 0.72,0.74 1.7,1.12 1,0.36 2.2,0.36 1.2,0 2.06,-0.28 0.88,-0.28 1.52,-0.62 0.66,-0.34 1.14,-0.62 0.5,-0.28 0.96,-0.28 0.62,0 0.92,0.46 l 1.42,1.8 q -0.82,0.96 -1.84,1.62 -1.02,0.64 -2.14,1.04 -1.1,0.38 -2.26,0.54 -1.14,0.16 -2.22,0.16 -2.14,0 -3.98,-0.7 -1.84,-0.72 -3.2,-2.1 -1.36,-1.4 -2.14,-3.44 -0.78,-2.06 -0.78,-4.76 0,-2.1 0.68,-3.94 0.68,-1.86 1.94,-3.22 1.28,-1.38 3.1,-2.18 1.84,-0.8 4.14,-0.8 1.94,0 3.58,0.62 1.64,0.62 2.82,1.82 1.18,1.18 1.84,2.92 0.68,1.72 0.68,3.94 0,1.12 -0.24,1.52 -0.24,0.38 -0.92,0.38 z"
       style="font-style:normal;font-variant:normal;font-weight:bold;font-stretch:normal;font-family:Lato;-inkscape-font-specification:'Lato Bold';fill:#303030;fill-opacity:1"
       id="path17587"
       inkscape:connector-curvature="0" />
    <path
       d="m 284.6657,33.041094 q -0.84,-1.02 -1.84,-1.44 -0.98,-0.42 -2.12,-0.42 -1.12,0 -2.02,0.42 -0.9,0.42 -1.54,1.28 -0.64,0.84 -0.98,2.16 -0.34,1.3 -0.34,3.08 0,1.8 0.28,3.06 0.3,1.24 0.84,2.04 0.54,0.78 1.32,1.14 0.78,0.34 1.74,0.34 1.54,0 2.62,-0.64 1.08,-0.64 2.04,-1.82 z m 4.94,-14.44 v 29.72 h -3.02 q -0.98,0 -1.24,-0.9 l -0.42,-1.98 q -1.24,1.42 -2.86,2.3 -1.6,0.88 -3.74,0.88 -1.68,0 -3.08,-0.7 -1.4,-0.7 -2.42,-2.02 -1,-1.34 -1.56,-3.3 -0.54,-1.96 -0.54,-4.48 0,-2.28 0.62,-4.24 0.62,-1.96 1.78,-3.4 1.16,-1.44 2.78,-2.24 1.62,-0.82 3.64,-0.82 1.72,0 2.94,0.54 1.22,0.54 2.18,1.46 v -10.82 z"
       style="font-style:normal;font-variant:normal;font-weight:bold;font-stretch:normal;font-family:Lato;-inkscape-font-specification:'Lato Bold';fill:#303030;fill-opacity:1"
       id="path17589"
       inkscape:connector-curvature="0" />
    <path
       d="m 312.20008,27.801094 v 20.52 h -3.02 q -0.98,0 -1.24,-0.9 l -0.34,-1.64 q -1.26,1.28 -2.78,2.08 -1.52,0.78 -3.58,0.78 -1.68,0 -2.98,-0.56 -1.28,-0.58 -2.16,-1.62 -0.88,-1.04 -1.34,-2.46 -0.44,-1.44 -0.44,-3.16 v -13.04 h 4.94 v 13.04 q 0,1.88 0.86,2.92 0.88,1.02 2.62,1.02 1.28,0 2.4,-0.56 1.12,-0.58 2.12,-1.58 v -14.84 z"
       style="font-style:normal;font-variant:normal;font-weight:bold;font-stretch:normal;font-family:Lato;-inkscape-font-specification:'Lato Bold';fill:#303030;fill-opacity:1"
       id="path17591"
       inkscape:connector-curvature="0" />
    <path
       d="m 335.4182,48.321094 h -4.76 q -0.54,0 -0.88,-0.28 -0.32,-0.28 -0.54,-0.64 l -4.34,-7.14 q -0.1,0.34 -0.24,0.64 -0.12,0.3 -0.28,0.56 l -3.84,5.94 q -0.22,0.34 -0.54,0.64 -0.32,0.28 -0.8,0.28 h -4.42 l 7.04,-10.58 -6.76,-9.94 h 4.76 q 0.54,0 0.8,0.16 0.26,0.14 0.46,0.48 l 4.3,6.84 q 0.22,-0.68 0.62,-1.34 l 3.46,-5.4 q 0.44,-0.74 1.14,-0.74 h 4.54 l -6.74,9.72 z"
       style="font-style:normal;font-variant:normal;font-weight:bold;font-stretch:normal;font-family:Lato;-inkscape-font-specification:'Lato Bold';fill:#303030;fill-opacity:1"
       id="path17593"
       inkscape:connector-curvature="0" />
  </g>
</svg>
